<mxfile host="app.diagrams.net" modified="2023-04-07T14:19:32.466Z" agent="Mozilla/5.0 (Windows NT 10.0; Win64; x64) AppleWebKit/537.36 (KHTML, like Gecko) Chrome/87.0.4280.88 Safari/537.36" version="21.1.5" etag="zqfkh3YNl4phq3zYpwSe" type="github">
  <diagram name="第 1 页" id="X44rpKQRbenA_rlF65kb">
    <mxGraphModel>
      <root>
        <mxCell id="0" />
        <mxCell id="1" parent="0" />
      </root>
    </mxGraphModel>
  </diagram>
</mxfile>
